<svg width="130" height="106" viewBox="0 0 130 106" fill="none" xmlns="http://www.w3.org/2000/svg">
<g opacity="0.1">
<mask id="mask0_11_95" style="mask-type:alpha" maskUnits="userSpaceOnUse" x="0" y="-4" width="146" height="146">
<rect y="-4" width="146" height="146" fill="#D9D9D9"/>
</mask>
<g mask="url(#mask0_11_95)">
<path d="M48.6667 69V81.1666C48.6667 87.8583 51.0494 93.5868 55.8147 98.352C60.5799 103.117 66.3084 105.5 73.0001 105.5C79.6917 105.5 85.4202 103.117 90.1855 98.352C94.9508 93.5868 97.3334 87.8583 97.3334 81.1666V69H48.6667ZM73.0001 96.375C68.7417 96.375 65.1424 94.9048 62.2022 91.9645C59.2619 89.0243 57.7917 85.425 57.7917 81.1666V78.125H88.2084V81.1666C88.2084 85.425 86.7383 89.0243 83.798 91.9645C80.8577 94.9048 77.2584 96.375 73.0001 96.375ZM51.7084 38.5833C47.8556 38.5833 44.4338 39.9774 41.4428 42.7656C38.4518 45.5538 36.348 49.3812 35.1313 54.2479L43.9522 56.377C44.5605 53.7409 45.5744 51.6371 46.9938 50.0656C48.4133 48.4941 49.9848 47.7083 51.7084 47.7083C53.432 47.7083 55.0036 48.4941 56.423 50.0656C57.8424 51.6371 58.8563 53.7409 59.4647 56.377L68.2855 54.2479C67.0688 49.3812 64.965 45.5538 61.974 42.7656C58.9831 39.9774 55.5612 38.5833 51.7084 38.5833ZM94.2917 38.5833C90.439 38.5833 87.0171 39.9774 84.0261 42.7656C81.0351 45.5538 78.9313 49.3812 77.7147 54.2479L86.5355 56.377C87.1438 53.7409 88.1577 51.6371 89.5772 50.0656C90.9966 48.4941 92.5681 47.7083 94.2917 47.7083C96.0154 47.7083 97.5869 48.4941 99.0063 50.0656C100.426 51.6371 101.44 53.7409 102.048 56.377L110.869 54.2479C109.652 49.3812 107.548 45.5538 104.557 42.7656C101.566 39.9774 98.1445 38.5833 94.2917 38.5833ZM73.0001 129.833C64.5848 129.833 56.6765 128.236 49.2751 125.043C41.8737 121.849 35.4355 117.515 29.9605 112.04C24.4855 106.565 20.1511 100.126 16.9574 92.725C13.7636 85.3236 12.1667 77.4152 12.1667 69C12.1667 60.5847 13.7636 52.6763 16.9574 45.275C20.1511 37.8736 24.4855 31.4354 29.9605 25.9604C35.4355 20.4854 41.8737 16.151 49.2751 12.9573C56.6765 9.7635 64.5848 8.16663 73.0001 8.16663C81.4154 8.16663 89.3237 9.7635 96.7251 12.9573C104.126 16.151 110.565 20.4854 116.04 25.9604C121.515 31.4354 125.849 37.8736 129.043 45.275C132.237 52.6763 133.833 60.5847 133.833 69C133.833 77.4152 132.237 85.3236 129.043 92.725C125.849 100.126 121.515 106.565 116.04 112.04C110.565 117.515 104.126 121.849 96.7251 125.043C89.3237 128.236 81.4154 129.833 73.0001 129.833ZM73.0001 117.667C86.5862 117.667 98.0938 112.952 107.523 103.523C116.952 94.0937 121.667 82.5861 121.667 69C121.667 55.4138 116.952 43.9062 107.523 34.477C98.0938 25.0479 86.5862 20.3333 73.0001 20.3333C59.414 20.3333 47.9063 25.0479 38.4772 34.477C29.048 43.9062 24.3334 55.4138 24.3334 69C24.3334 82.5861 29.048 94.0937 38.4772 103.523C47.9063 112.952 59.414 117.667 73.0001 117.667Z" fill="#FAFAFA"/>
</g>
</g>
</svg>
