<svg width="130" height="106" viewBox="0 0 130 106" fill="none" xmlns="http://www.w3.org/2000/svg">
<g opacity="0.1">
<mask id="mask0_11_98" style="mask-type:alpha" maskUnits="userSpaceOnUse" x="0" y="-4" width="146" height="146">
<rect y="-4" width="146" height="146" fill="#D9D9D9"/>
</mask>
<g mask="url(#mask0_11_98)">
<path d="M73.0001 78.125C66.1056 78.125 59.8449 80.0768 54.2178 83.9802C48.5907 87.8837 44.5098 93.0292 41.9751 99.4167H104.025C101.49 93.0292 97.4095 87.8837 91.7824 83.9802C86.1553 80.0768 79.8945 78.125 73.0001 78.125ZM47.4501 69L54.1417 62.6125L60.5292 69L66.9167 62.6125L60.5292 56.225L66.9167 49.5334L60.5292 43.1459L54.1417 49.5334L47.4501 43.1459L41.0626 49.5334L47.4501 56.225L41.0626 62.6125L47.4501 69ZM85.4709 69L91.8584 62.6125L98.5501 69L104.938 62.6125L98.5501 56.225L104.938 49.5334L98.5501 43.1459L91.8584 49.5334L85.4709 43.1459L79.0834 49.5334L85.4709 56.225L79.0834 62.6125L85.4709 69ZM73.0001 129.833C64.5848 129.833 56.6765 128.236 49.2751 125.043C41.8737 121.849 35.4355 117.515 29.9605 112.04C24.4855 106.565 20.1511 100.126 16.9574 92.725C13.7636 85.3236 12.1667 77.4153 12.1667 69C12.1667 60.5847 13.7636 52.6764 16.9574 45.275C20.1511 37.8736 24.4855 31.4354 29.9605 25.9604C35.4355 20.4854 41.8737 16.1511 49.2751 12.9573C56.6765 9.76356 64.5848 8.16669 73.0001 8.16669C81.4154 8.16669 89.3237 9.76356 96.7251 12.9573C104.126 16.1511 110.565 20.4854 116.04 25.9604C121.515 31.4354 125.849 37.8736 129.043 45.275C132.237 52.6764 133.833 60.5847 133.833 69C133.833 77.4153 132.237 85.3236 129.043 92.725C125.849 100.126 121.515 106.565 116.04 112.04C110.565 117.515 104.126 121.849 96.7251 125.043C89.3237 128.236 81.4154 129.833 73.0001 129.833ZM73.0001 117.667C86.5862 117.667 98.0938 112.952 107.523 103.523C116.952 94.0938 121.667 82.5861 121.667 69C121.667 55.4139 116.952 43.9063 107.523 34.4771C98.0938 25.0479 86.5862 20.3334 73.0001 20.3334C59.414 20.3334 47.9063 25.0479 38.4772 34.4771C29.048 43.9063 24.3334 55.4139 24.3334 69C24.3334 82.5861 29.048 94.0938 38.4772 103.523C47.9063 112.952 59.414 117.667 73.0001 117.667Z" fill="#FAFAFA"/>
</g>
</g>
</svg>
