<svg width="130" height="106" viewBox="0 0 130 106" fill="none" xmlns="http://www.w3.org/2000/svg">
<g opacity="0.1">
<mask id="mask0_11_97" style="mask-type:alpha" maskUnits="userSpaceOnUse" x="0" y="-4" width="146" height="146">
<rect y="-4" width="146" height="146" fill="#D9D9D9"/>
</mask>
<g mask="url(#mask0_11_97)">
<path d="M94.2917 62.9167C96.8265 62.9167 98.981 62.0295 100.755 60.2552C102.53 58.4809 103.417 56.3264 103.417 53.7917C103.417 51.257 102.53 49.1024 100.755 47.3281C98.981 45.5538 96.8265 44.6667 94.2917 44.6667C91.757 44.6667 89.6025 45.5538 87.8282 47.3281C86.0539 49.1024 85.1667 51.257 85.1667 53.7917C85.1667 56.3264 86.0539 58.4809 87.8282 60.2552C89.6025 62.0295 91.757 62.9167 94.2917 62.9167ZM51.7084 62.9167C54.2431 62.9167 56.3976 62.0295 58.172 60.2552C59.9463 58.4809 60.8334 56.3264 60.8334 53.7917C60.8334 51.257 59.9463 49.1024 58.172 47.3281C56.3976 45.5538 54.2431 44.6667 51.7084 44.6667C49.1737 44.6667 47.0192 45.5538 45.2449 47.3281C43.4706 49.1024 42.5834 51.257 42.5834 53.7917C42.5834 56.3264 43.4706 58.4809 45.2449 60.2552C47.0192 62.0295 49.1737 62.9167 51.7084 62.9167ZM54.7501 90.2917H91.2501V81.1667H54.7501V90.2917ZM73.0001 129.833C64.5848 129.833 56.6765 128.236 49.2751 125.043C41.8737 121.849 35.4355 117.515 29.9605 112.04C24.4855 106.565 20.1511 100.126 16.9574 92.725C13.7636 85.3236 12.1667 77.4153 12.1667 69C12.1667 60.5847 13.7636 52.6764 16.9574 45.275C20.1511 37.8736 24.4855 31.4354 29.9605 25.9604C35.4355 20.4854 41.8737 16.1511 49.2751 12.9573C56.6765 9.76356 64.5848 8.16669 73.0001 8.16669C81.4154 8.16669 89.3237 9.76356 96.7251 12.9573C104.126 16.1511 110.565 20.4854 116.04 25.9604C121.515 31.4354 125.849 37.8736 129.043 45.275C132.237 52.6764 133.833 60.5847 133.833 69C133.833 77.4153 132.237 85.3236 129.043 92.725C125.849 100.126 121.515 106.565 116.04 112.04C110.565 117.515 104.126 121.849 96.7251 125.043C89.3237 128.236 81.4154 129.833 73.0001 129.833ZM73.0001 117.667C86.5862 117.667 98.0938 112.952 107.523 103.523C116.952 94.0938 121.667 82.5861 121.667 69C121.667 55.4139 116.952 43.9063 107.523 34.4771C98.0938 25.0479 86.5862 20.3334 73.0001 20.3334C59.414 20.3334 47.9063 25.0479 38.4772 34.4771C29.048 43.9063 24.3334 55.4139 24.3334 69C24.3334 82.5861 29.048 94.0938 38.4772 103.523C47.9063 112.952 59.414 117.667 73.0001 117.667Z" fill="#FAFAFA"/>
</g>
</g>
</svg>
